<?xml version="1.0" encoding="utf-8"?>
<!-- Generator: Adobe Illustrator 21.1.0, SVG Export Plug-In . SVG Version: 6.00 Build 0)  -->
<svg version="1.1" id="Laag_1" xmlns="http://www.w3.org/2000/svg" xmlns:xlink="http://www.w3.org/1999/xlink" x="0px" y="0px"
	 viewBox="0 0 38.2 37.2" style="enable-background:new 0 0 38.2 37.2;" xml:space="preserve">
<style type="text/css">
	.st0{fill:#D01630;}
	.st1{fill:none;stroke:#D1162F;stroke-miterlimit:10;}
</style>
<g>
	<g>
		<path class="st0" d="M35.5,9c-0.9-3-3.6-5.3-6.7-5.9c-4.4-0.8-8.7,2.3-9.7,6.5c-1-4.2-5.3-7.4-9.7-6.6C6.3,3.6,3.7,5.9,2.7,8.9
			c-0.9,2.8-0.3,5.9,1,8.5C5,20,7,22.3,9.1,24.4c3.4,3.5,10,11.3,10.1,11.2c0.1,0.1,6.6-7.6,10-11.1c2-2.1,4-4.3,5.3-7
			C35.8,14.9,36.4,11.8,35.5,9z"/>
	</g>
	<g>
		<path class="st1" d="M35.5,9c-0.9-3-3.6-5.3-6.7-5.9c-4.4-0.8-8.7,2.3-9.7,6.5c-1-4.2-5.3-7.4-9.7-6.6C6.3,3.6,3.7,5.9,2.7,8.9
			c-0.9,2.8-0.3,5.9,1,8.5C5,20,7,22.3,9.1,24.4c3.4,3.5,10,11.3,10.1,11.2c0.1,0.1,6.6-7.6,10-11.1c2-2.1,4-4.3,5.3-7
			C35.8,14.9,36.4,11.8,35.5,9z"/>
	</g>
</g>
</svg>
