<svg xmlns="http://www.w3.org/2000/svg" viewBox="0 0 34.65 33.68"><defs><style>.cls-1{fill:#d01630;}.cls-2{fill:none;stroke:#d1162f;stroke-miterlimit:10;}</style></defs><title>hart</title><g id="Laag_2" data-name="Laag 2"><g id="Laag_1-2" data-name="Laag 1"><path class="cls-1" d="M33.72,6.58A8.77,8.77,0,0,0,27.06.71a8.68,8.68,0,0,0-9.72,6.5A8.69,8.69,0,0,0,7.59.62,8.77,8.77,0,0,0,.93,6.5a11.56,11.56,0,0,0,1,8.53,29,29,0,0,0,5.34,7c3.38,3.5,10,11.32,10.1,11.19.09.1,6.65-7.61,10-11.11a29,29,0,0,0,5.34-7A11.55,11.55,0,0,0,33.72,6.58Z"/><path class="cls-2" d="M33.72,6.58A8.77,8.77,0,0,0,27.06.71a8.68,8.68,0,0,0-9.72,6.5A8.69,8.69,0,0,0,7.59.62,8.77,8.77,0,0,0,.93,6.5a11.56,11.56,0,0,0,1,8.53,29,29,0,0,0,5.34,7c3.38,3.5,10,11.32,10.1,11.19.09.1,6.65-7.61,10-11.11a29,29,0,0,0,5.34-7A11.55,11.55,0,0,0,33.72,6.58Z"/></g></g></svg>