<svg xmlns="http://www.w3.org/2000/svg" viewBox="0 0 542.29 72.01"><defs><style>.cls-1,.cls-2,.cls-5{fill:#d1162f;}.cls-2{font-size:18.55px;font-family:DINCondensed-Bold, DIN Condensed;font-weight:700;}.cls-3{fill:#d01630;}.cls-4{fill:none;stroke:#d1162f;stroke-miterlimit:10;}.cls-5{font-size:54.92px;font-family:Avenir-Black, Avenir;}</style></defs><title>Middel 2</title><g id="Laag_2" data-name="Laag 2"><g id="Laag_1-2" data-name="Laag 1"><polygon class="cls-1" points="150.93 19.85 162.98 21.7 154.53 33.06 156.91 48.59 146.02 41.61 135.44 49.37 137.16 33.69 128.25 22.95 140.2 20.24 145.26 5.85 150.93 19.85"/><polygon class="cls-1" points="194.33 19.15 206.38 21 197.93 32.36 200.31 47.89 189.42 40.91 178.84 48.67 180.56 32.99 171.64 22.25 183.6 19.54 188.66 5.15 194.33 19.15"/><polygon class="cls-1" points="238.42 18.56 250.47 20.41 242.02 31.77 244.4 47.3 233.51 40.32 222.94 48.08 224.66 32.4 215.74 21.66 227.69 18.95 232.76 4.56 238.42 18.56"/><polygon class="cls-1" points="283.42 18.87 295.47 20.72 287.02 32.08 289.4 47.61 278.51 40.63 267.93 48.39 269.65 32.71 260.74 21.97 272.69 19.26 277.75 4.87 283.42 18.87"/><text class="cls-2" transform="translate(500.91 34.97) scale(1.18 1)">700 m</text><path class="cls-3" d="M33.72,19.24a8.77,8.77,0,0,0-6.66-5.87,8.68,8.68,0,0,0-9.72,6.5,8.69,8.69,0,0,0-9.74-6.58A8.77,8.77,0,0,0,.93,19.16a11.56,11.56,0,0,0,1,8.53,29,29,0,0,0,5.34,7c3.38,3.5,10,11.32,10.1,11.19.09.1,6.65-7.61,10-11.11a29,29,0,0,0,5.34-7A11.55,11.55,0,0,0,33.72,19.24Z"/><path class="cls-4" d="M33.72,19.24a8.77,8.77,0,0,0-6.66-5.87,8.68,8.68,0,0,0-9.72,6.5,8.69,8.69,0,0,0-9.74-6.58A8.77,8.77,0,0,0,.93,19.16a11.56,11.56,0,0,0,1,8.53,29,29,0,0,0,5.34,7c3.38,3.5,10,11.32,10.1,11.19.09.1,6.65-7.61,10-11.11a29,29,0,0,0,5.34-7A11.55,11.55,0,0,0,33.72,19.24Z"/><text class="cls-5" transform="translate(415.19 46.91) scale(0.68 1)">€</text></g></g></svg>