<?xml version="1.0" encoding="utf-8"?>
<!-- Generator: Adobe Illustrator 21.1.0, SVG Export Plug-In . SVG Version: 6.00 Build 0)  -->
<svg version="1.1" id="Laag_1" xmlns="http://www.w3.org/2000/svg" xmlns:xlink="http://www.w3.org/1999/xlink" x="0px" y="0px"
	 viewBox="0 0 554.8 56.9" style="enable-background:new 0 0 554.8 56.9;" xml:space="preserve">
<style type="text/css">
	.st0{fill:#D1162F;}
	.st1{font-family:'DINCondensed-Bold';}
	.st2{font-size:18.55px;}
	.st3{fill:#D01630;}
	.st4{fill:none;stroke:#D1162F;stroke-miterlimit:10;}
	.st5{font-family:'Avenir-Black';}
	.st6{font-size:54.92px;}
	.st7{fill:none;stroke:#000000;stroke-miterlimit:10;}
</style>
<title>review balk</title>
<g id="Laag_1-2">
	<polygon class="st0" points="162.7,19.8 174.7,21.7 166.3,33.1 168.7,48.6 157.8,41.6 147.2,49.4 148.9,33.7 140,22.9 152,20.2 
		157,5.8 	"/>
	<polygon class="st0" points="206.1,19.1 218.1,21 209.7,32.4 212.1,47.9 201.2,40.9 190.6,48.7 192.3,33 183.4,22.2 195.4,19.5 
		200.4,5.1 	"/>
	<polygon class="st0" points="250.2,18.6 262.2,20.4 253.8,31.8 256.2,47.3 245.3,40.3 234.7,48.1 236.4,32.4 227.5,21.7 
		239.4,18.9 244.5,4.6 	"/>
	<polygon class="st0" points="295.2,18.9 307.2,20.7 298.8,32.1 301.2,47.6 290.3,40.6 279.7,48.4 281.4,32.7 272.5,22 284.4,19.3 
		289.5,4.9 	"/>
	<polygon class="st0" points="340.3,18.5 352.3,20.3 343.9,31.7 346.3,47.2 335.4,40.2 324.8,48 326.5,32.3 317.6,21.6 329.6,18.9 
		334.6,4.5 	"/>
	<text transform="matrix(1.18 0 0 1 500.6617 34.9701)" class="st0 st1 st2">700 m</text>
	<path class="st3" d="M45.5,19.2c-1-3-3.5-5.3-6.7-5.9c-4.4-0.7-8.6,2.1-9.7,6.5c-1-4.4-5.3-7.2-9.7-6.6c-3.1,0.6-5.7,2.8-6.7,5.9
		c-0.8,2.9-0.4,5.9,1,8.5c1.4,2.6,3.2,5,5.3,7c3.4,3.5,10,11.3,10.1,11.2c0.1,0.1,6.7-7.6,10-11.1c2.1-2,3.9-4.4,5.3-7
		C45.9,25.2,46.2,22.1,45.5,19.2z"/>
	<path class="st4" d="M45.5,19.2c-1-3-3.5-5.3-6.7-5.9c-4.4-0.7-8.6,2.1-9.7,6.5c-1-4.4-5.3-7.2-9.7-6.6c-3.1,0.6-5.7,2.8-6.7,5.9
		c-0.8,2.9-0.4,5.9,1,8.5c1.4,2.6,3.2,5,5.3,7c3.4,3.5,10,11.3,10.1,11.2c0.1,0.1,6.7-7.6,10-11.1c2.1-2,3.9-4.4,5.3-7
		C45.9,25.2,46.2,22.1,45.5,19.2z"/>
	<text transform="matrix(0.68 0 0 1 426.941 46.8998)" class="st0 st5 st6">€</text>
</g>
<rect x="0" y="0.3" class="st7" width="58" height="56.1"/>
<rect x="132" y="-0.2" class="st7" width="227.6" height="57"/>
<rect x="419.1" y="0.3" class="st7" width="135.4" height="56.4"/>
</svg>
