<?xml version="1.0" encoding="utf-8"?>
<!-- Generator: Adobe Illustrator 21.1.0, SVG Export Plug-In . SVG Version: 6.00 Build 0)  -->
<svg version="1.1" id="Laag_1" xmlns="http://www.w3.org/2000/svg" xmlns:xlink="http://www.w3.org/1999/xlink" x="0px" y="0px"
	 viewBox="0 0 534.5 72.2" style="enable-background:new 0 0 534.5 72.2;" xml:space="preserve">
<style type="text/css">
	.st0{fill:#D1162F;}
	.st1{font-family:'DINCondensed-Bold';}
	.st2{font-size:18.55px;}
	.st3{fill:#D01630;}
	.st4{font-family:'Avenir-Black';}
	.st5{font-size:54.92px;}
</style>
<title>review balk 2</title>
<g id="Laag_2">
	<g id="Laag_1-2">
		<polygon class="st0" points="150.9,20 163,21.9 154.5,33.2 156.9,48.8 146,41.8 135.4,49.5 137.2,33.8 128.2,23.1 140.2,20.4 
			145.3,6 		"/>
		<polygon class="st0" points="194.3,19.3 206.4,21.2 197.9,32.5 200.3,48.1 189.4,41.1 178.8,48.8 180.6,33.1 171.6,22.4 
			183.6,19.7 188.7,5.3 		"/>
		<polygon class="st0" points="238.4,18.7 250.5,20.6 242,31.9 244.4,47.5 233.5,40.5 222.9,48.2 224.7,32.6 215.7,21.8 227.7,19.1 
			232.8,4.7 		"/>
		<polygon class="st0" points="283.4,19 295.5,20.9 287,32.2 289.4,47.8 278.5,40.8 267.9,48.5 269.6,32.9 260.7,22.1 272.7,19.4 
			277.8,5 		"/>
		<polygon class="st0" points="328.5,18.6 340.6,20.5 332.1,31.8 334.5,47.4 323.6,40.4 313,48.2 314.8,32.5 305.9,21.7 317.8,19 
			322.9,4.6 		"/>
		<text transform="matrix(1.18 0 0 1 500.9102 35.14)" class="st0 st1 st2">1 km</text>
		<path class="st3" d="M43.2,22.7c-1-3-3.5-5.3-6.7-5.9c-4.4-0.7-8.6,2.1-9.7,6.5c-1-4.4-5.3-7.2-9.7-6.6c-3.1,0.6-5.7,2.9-6.7,5.9
			c-0.8,2.9-0.4,5.9,1,8.5c1.4,2.6,3.2,5,5.3,7c3.4,3.5,10,11.3,10.1,11.2c0.1,0.1,6.6-7.6,10-11.1c2.1-2,3.9-4.4,5.3-7
			C43.6,28.6,43.9,25.6,43.2,22.7z"/>
		<text transform="matrix(0.68 0 0 1 415.1895 47.0702)" class="st0 st4 st5">€</text>
		<text transform="matrix(0.68 0 0 1 392.0801 47.1)" class="st0 st4 st5">€</text>
		<text transform="matrix(0.68 0 0 1 440.9004 46.91)" class="st0 st4 st5">€</text>
	</g>
</g>
</svg>
