<?xml version="1.0" encoding="utf-8"?>
<!-- Generator: Adobe Illustrator 21.1.0, SVG Export Plug-In . SVG Version: 6.00 Build 0)  -->
<svg version="1.1" id="Laag_1" xmlns="http://www.w3.org/2000/svg" xmlns:xlink="http://www.w3.org/1999/xlink" x="0px" y="0px"
	 viewBox="0 0 227.2 56.2" style="enable-background:new 0 0 227.2 56.2;" xml:space="preserve">
<style type="text/css">
	.st0{fill:#D11A30;}
</style>
<polygon class="st0" points="30.4,19.5 42.4,21.4 34,32.7 36.3,48.2 25.5,41.3 14.9,49 16.6,33.3 7.7,22.6 19.6,19.9 24.7,5.5 "/>
<polygon class="st0" points="73.8,18.8 85.8,20.7 77.4,32 79.7,47.5 68.9,40.6 58.3,48.3 60,32.6 51.1,21.9 63,19.2 68.1,4.8 "/>
<polygon class="st0" points="117.9,18.2 129.9,20.1 121.5,31.4 123.8,47 112.9,40 102.4,47.7 104.1,32.1 95.2,21.3 107.1,18.6 
	112.2,4.2 "/>
<polygon class="st0" points="162.9,18.5 174.9,20.4 166.5,31.7 168.8,47.3 157.9,40.3 147.4,48 149.1,32.4 140.2,21.6 152.1,18.9 
	157.2,4.5 "/>
<polygon class="st0" points="208,18.1 220,20 211.6,31.3 213.9,46.9 203.1,39.9 192.5,47.6 194.2,32 185.3,21.2 197.2,18.5 
	202.3,4.1 "/>
</svg>
